<?xml version="1.0" standalone="no"?><!DOCTYPE svg PUBLIC "-//W3C//DTD SVG 1.1//EN" "http://www.w3.org/Graphics/SVG/1.1/DTD/svg11.dtd"><svg t="1618558130892" class="icon" viewBox="0 0 1024 1024" version="1.1" xmlns="http://www.w3.org/2000/svg" p-id="721" xmlns:xlink="http://www.w3.org/1999/xlink" width="200" height="200"><defs><style type="text/css"></style></defs><path d="M785.066667 418.133333c0 14.114133 11.485867 25.6 25.6 25.6s25.6-11.485867 25.6-25.6-11.485867-25.6-25.6-25.6-25.6 11.485867-25.6 25.6M768 324.266667c18.824533 0 34.133333-15.3088 34.133333-34.133334s-15.3088-34.133333-34.133333-34.133333-34.133333 15.3088-34.133333 34.133333 15.3088 34.133333 34.133333 34.133334m51.2-204.8a17.083733 17.083733 0 0 0 34.133333 0 17.083733 17.083733 0 0 0-34.133333 0m-34.133333 0c0-28.228267 22.971733-51.2 51.2-51.2s51.2 22.971733 51.2 51.2-22.971733 51.2-51.2 51.2-51.2-22.971733-51.2-51.2m170.666666 392.533333H460.8c-180.736 0-187.460267-159.675733-187.716267-307.2H409.6c37.649067 0 68.266667 30.6176 68.266667 68.266667v68.266666h-68.266667c-37.649067 0-68.266667-30.6176-68.266667-68.266666v-17.066667a17.066667 17.066667 0 0 0-34.133333 0v17.066667c0 56.4736 45.9264 102.4 102.4 102.4h85.333333a17.066667 17.066667 0 0 0 17.066667-17.066667v-85.333333c0-56.4736-45.9264-102.4-102.4-102.4h-136.533333V102.4c0-56.4736-45.9264-102.4-102.4-102.4H85.333333a17.066667 17.066667 0 0 0-17.066666 17.066667v85.333333c0 26.2656 11.264 60.654933 42.8544 78.353067a17.066667 17.066667 0 1 0 16.6912-29.781334C109.073067 140.475733 102.4 119.005867 102.4 102.4V34.133333h68.266667c37.649067 0 68.266667 30.6176 68.266666 68.266667v69.461333C147.0976 183.995733 0 291.1744 0 529.066667c0 185.1392 112.571733 357.0176 267.6736 408.7296a17.066667 17.066667 0 0 0 10.786133-32.392534C136.891733 858.2144 34.133333 699.938133 34.133333 529.066667c0-213.265067 125.098667-310.3232 204.817067-322.7648C239.291733 355.362133 247.876267 546.133333 460.8 546.133333h494.933333c18.824533 0 34.133333 15.3088 34.133334 34.133334v17.066666a392.874667 392.874667 0 0 1-12.3904 98.1504 17.083733 17.083733 0 0 0 33.0752 8.516267c8.9088-34.645333 13.448533-70.536533 13.448533-106.666667v-17.066666c0-37.649067-30.6176-68.266667-68.266667-68.266667m17.066667 238.933333H699.733333c-122.453333 0-148.9408 67.754667-152.610133 79.5648-5.461333 12.629333-65.723733 144.315733-214.237867 158.190934l58.436267-146.0736a17.1008 17.1008 0 0 0-31.709867-12.6976l-68.266666 170.666666A17.117867 17.117867 0 0 0 307.2 1024c194.7648 0 271.035733-179.421867 271.786667-181.230933 0.3072-0.768 0.5632-1.553067 0.768-2.3552 0.1024-0.341333 5.853867-21.1968 34.645333-37.205334V938.666667a17.066667 17.066667 0 1 0 34.133333 0v-148.224c14.097067-3.293867 30.941867-5.376 51.2-5.376h17.066667v128a17.066667 17.066667 0 1 0 34.133333 0V785.066667h68.266667v51.2a17.066667 17.066667 0 1 0 34.133333 0v-51.2h92.0064C877.789867 910.301867 744.0384 989.866667 597.333333 989.866667h-102.4a17.066667 17.066667 0 0 0 0 34.133333h102.4c169.284267 0 322.781867-97.7408 391.0144-248.9856A17.032533 17.032533 0 0 0 972.8 750.933333m-204.288-68.266666a17.152 17.152 0 0 1-17.152-17.066667c0-9.4208 7.560533-17.066667 16.981333-17.066667h0.170667a17.066667 17.066667 0 0 1 0 34.133334" fill="#1296db" p-id="722"></path></svg>